<svg xmlns="http://www.w3.org/2000/svg" viewBox="0 0 64 64">
  <defs>
    <linearGradient id="bg" x1="8" y1="6" x2="56" y2="58" gradientUnits="userSpaceOnUse">
      <stop offset="0" stop-color="#7DD3FC" />
      <stop offset="0.5" stop-color="#818CF8" />
      <stop offset="1" stop-color="#3B82F6" />
    </linearGradient>
    <radialGradient id="shine" cx="0" cy="0" r="1" gradientTransform="translate(20 16) rotate(38) scale(26 24)" gradientUnits="userSpaceOnUse">
      <stop offset="0" stop-color="#FFFFFF" stop-opacity="0.9" />
      <stop offset="1" stop-color="#FFFFFF" stop-opacity="0" />
    </radialGradient>
    <linearGradient id="mark" x1="16" y1="17" x2="45" y2="47" gradientUnits="userSpaceOnUse">
      <stop offset="0" stop-color="#FFFFFF" />
      <stop offset="1" stop-color="#E2E8F0" />
    </linearGradient>
  </defs>

  <rect width="64" height="64" rx="16" fill="url(#bg)" />
  <circle cx="20" cy="16" r="22" fill="url(#shine)" />
  <rect x="4.5" y="4.5" width="55" height="55" rx="13.5" fill="none" stroke="#FFFFFF" stroke-opacity="0.26" />

  <path
    d="M45 20C41.7 16.9 36.4 15 30.9 15C24.2 15 19.5 18.5 19.5 23.3C19.5 29.7 25.4 31.2 30.4 32.4C35.5 33.5 40.6 34.7 40.6 40.1C40.6 45.4 35.9 49 29.2 49C23.7 49 18.5 46.9 15 43.2"
    fill="none"
    stroke="url(#mark)"
    stroke-width="6"
    stroke-linecap="round"
    stroke-linejoin="round"
  />
</svg>
